<svg width="600" height="360" viewBox="0 0 600 360" fill="none" xmlns="http://www.w3.org/2000/svg">
<rect width="600" height="360" rx="18" fill="#111827"/>
<path d="M40 282C40 271.506 48.5066 263 59 263H541C551.493 263 560 271.506 560 282V302C560 312.493 551.493 321 541 321H59C48.5066 321 40 312.493 40 302V282Z" fill="#1F2937"/>
<path d="M230 166C230 132.863 256.863 106 290 106H310C343.137 106 370 132.863 370 166V190C370 223.137 343.137 250 310 250H290C256.863 250 230 223.137 230 190V166Z" fill="#1F2937"/>
<circle cx="300" cy="170" r="74" fill="#2D3B58"/>
<path d="M260 180C260 157.909 277.909 140 300 140C322.091 140 340 157.909 340 180C340 202.091 322.091 220 300 220C277.909 220 260 202.091 260 180Z" fill="#8A2BE2" fill-opacity="0.7"/>
<rect x="120" y="60" width="120" height="24" rx="12" fill="#1F2937"/>
<rect x="360" y="60" width="120" height="24" rx="12" fill="#1F2937"/>
<rect x="260" y="24" width="80" height="10" rx="5" fill="#1F2937"/>
<rect x="200" y="292" width="200" height="12" rx="6" fill="#2D3B58"/>
</svg>
