<?xml version="1.0" encoding="UTF-8"?>
<svg version="1.1" xmlns="http://www.w3.org/2000/svg" width="513" height="513">
<path d="M0 0 C169.29 0 338.58 0 513 0 C513 169.29 513 338.58 513 513 C343.71 513 174.42 513 0 513 C0 343.71 0 174.42 0 0 Z " fill="#FCFCFB" transform="translate(0,0)"/>
<path d="M0 0 C9.37545375 6.4968839 13.72047807 13.96664846 16 25 C16.40687785 28.72114832 16.47828628 32.38390237 16.4375 36.125 C16.42920166 37.12345947 16.42090332 38.12191895 16.41235352 39.15063477 C15.71530076 70.12607163 -2.22962492 98.51719383 -24.05859375 119.48828125 C-31.28077372 126.12703839 -39.80731571 133.06943879 -48.71313477 137.28393555 C-51.27882511 138.81671133 -51.27882511 138.81671133 -51.58349609 141.76806641 C-51.56367676 142.86812012 -51.54385742 143.96817383 -51.5234375 145.1015625 C-51.51183594 146.31457031 -51.50023437 147.52757812 -51.48828125 148.77734375 C-51.45089844 150.04707031 -51.41351563 151.31679688 -51.375 152.625 C-51.36082031 153.87152344 -51.34664062 155.11804688 -51.33203125 156.40234375 C-51.11727218 169.96079985 -50.26470288 184.14706234 -41 195 C-35.02828422 200.12208142 -30.63194872 202.38890914 -22.6875 202.2734375 C-13.64027348 201.3529348 -6.95522147 195.54466052 -1.19140625 188.921875 C6.81233342 178.44036291 10.97260986 166.14502443 12.87695312 153.24487305 C16.08090104 132.74387203 28.57537646 112.47741562 45 100 C59.73230461 89.68307908 77.53506567 85.17935584 95.3828125 87.42578125 C105.91998135 89.49512887 115.84545345 94.19654229 122.59765625 102.78125 C127.53189847 110.58807334 129.2852573 118.86549278 128 128 C124.94801964 140.38399724 117.62185039 149.41792475 107.0234375 156.34765625 C90.19550265 165.54431832 70.12820589 170.6463693 51 171 C52.65247833 181.04077308 55.12251141 189.56927783 63.5390625 195.9140625 C72.78126107 201.66658137 82.31933316 202.10623797 93 201 C99.60860819 199.1783441 104.13281332 195.4199773 108.625 190.35546875 C110 189 110 189 112 189 C113.44873047 190.66479492 113.44873047 190.66479492 115.1171875 192.98046875 C115.72433594 193.81513672 116.33148438 194.64980469 116.95703125 195.50976562 C117.58996094 196.39341797 118.22289062 197.27707031 118.875 198.1875 C120.12152396 199.91078725 121.36889674 201.63346088 122.6171875 203.35546875 C123.20209961 204.16677246 123.78701172 204.97807617 124.38964844 205.81396484 C125.68939761 207.57836055 127.05748469 209.2922936 128.4453125 210.98828125 C130 213 130 213 130 215 C127.70400259 216.8135937 125.41566274 218.48318232 123 220.125 C122.28102539 220.61492432 121.56205078 221.10484863 120.82128906 221.60961914 C115.94509024 224.86130288 110.98311149 227.79909679 105.75 230.4375 C105.15058594 230.74252441 104.55117188 231.04754883 103.93359375 231.36181641 C93.58535118 236.37805497 84.08057019 238.68793673 72.5625 238.5 C71.37398438 238.48791504 70.18546875 238.47583008 68.9609375 238.46337891 C60.66032979 238.27504004 53.5742496 237.61955291 46 234 C45.02289063 233.54109375 44.04578125 233.0821875 43.0390625 232.609375 C33.18665204 227.59072088 27.28342983 221.41898185 20.91796875 212.51171875 C19.24492786 209.93935644 19.24492786 209.93935644 17 209 C16.65775391 209.84111328 16.65775391 209.84111328 16.30859375 210.69921875 C9.18017377 223.2324706 -6.94930601 230.98011232 -20.23046875 234.89453125 C-33.4541388 238.29335352 -46.6548891 236.77620152 -58.52734375 230.046875 C-65.9714398 225.60503908 -72.19940254 220.49114477 -78 214 C-80.45504703 216.44203441 -82.8961807 218.89139722 -85.2890625 221.39453125 C-96.49663289 232.99567852 -109.28395417 242.72140192 -125.9375 243.3125 C-134.09077621 243.08775425 -140.24487545 240.70327448 -146.2109375 235.09375 C-151.44527546 228.96797458 -155.47800636 220.1261082 -155 212 C-155.66 212 -156.32 212 -157 212 C-157.2578125 212.57105469 -157.515625 213.14210938 -157.78125 213.73046875 C-163.53466878 224.44436717 -174.75468167 232.01819468 -186 236 C-196.16136513 238.6507909 -206.484761 237.32693055 -215.75390625 232.59375 C-229.25575493 224.6316028 -235.52894712 214.18279959 -239.609375 199.38671875 C-241.14310804 193.09637348 -241.46257607 187.14145392 -241.375 180.6875 C-241.36484863 179.59445557 -241.35469727 178.50141113 -241.34423828 177.37524414 C-241.00199199 159.4603755 -236.2958318 141.85575731 -226 127 C-225.35417969 126.04738281 -224.70835937 125.09476563 -224.04296875 124.11328125 C-212.03570343 107.21657095 -196.41553012 96.87916219 -177 90 C-175.92878906 89.5978125 -175.92878906 89.5978125 -174.8359375 89.1875 C-167.13505374 86.74492894 -155.45494677 86.229619 -148.1875 89.9375 C-147.135625 90.618125 -146.08375 91.29875 -145 92 C-143.515 92.495 -143.515 92.495 -142 93 C-141.01 91.02 -140.02 89.04 -139 87 C-126.67375067 87.76055581 -118.12585839 90.31660747 -109 99 C-106.04628855 104.90742289 -109.67802133 114.39723617 -111.25 120.5 C-117.43325294 145.62186717 -123.22033046 172.10690723 -123.4375 198.0625 C-123.4475708 198.82361084 -123.4576416 199.58472168 -123.46801758 200.36889648 C-123.40037523 204.50275571 -122.93386461 207.00387832 -120 210 C-107.91832555 208.21641361 -98.92260538 197.1989576 -92 188 C-89.90485198 184.85727797 -89.75798996 184.22609352 -89.82055664 180.66577148 C-89.83508881 179.34909233 -89.83508881 179.34909233 -89.84991455 178.0058136 C-89.87973419 176.57787727 -89.87973419 176.57787727 -89.91015625 175.12109375 C-89.93337841 173.07699329 -89.9558934 171.0328847 -89.9777832 168.98876953 C-89.99233551 167.9183844 -90.00688782 166.84799927 -90.0218811 165.74517822 C-90.2487962 147.26702693 -90.14616254 129.256951 -87 111 C-86.74259033 109.4231543 -86.74259033 109.4231543 -86.47998047 107.81445312 C-80.68945286 72.85394861 -69.53542485 24.54872421 -39 2.125 C-27.08487694 -5.64416496 -12.87516575 -7.02657521 0 0 Z " fill="#030303" transform="translate(375,114)"/>
<path d="M0 0 C15.05955893 4.07416326 29.59970847 6.05349492 45.1875 6.0625 C46.30705078 6.07474609 47.42660156 6.08699219 48.58007812 6.09960938 C62.84840759 6.12471494 75.50885464 2.79878806 86.125 -7.125 C86.785 -7.125 87.445 -7.125 88.125 -7.125 C91.78450877 7.69010808 88.83404078 22.86359734 81.8515625 36.140625 C77.05605055 43.73532719 69.78149017 48.00037159 61.24902344 50.40332031 C47.94717144 53.35724883 34.05417557 50.2501658 21.28662109 46.5078125 C18.32950019 45.64211819 15.35232319 44.85543627 12.375 44.0625 C10.95793829 43.66808325 9.54119217 43.27252763 8.125 42.875 C8.08616699 43.51719482 8.04733398 44.15938965 8.00732422 44.82104492 C7.36783525 53.80547973 6.02358459 62.63773378 4.65609741 71.53240967 C1.84009177 89.94363105 -0.41960507 108.30276908 -1.875 126.875 C-1.94557617 127.72932617 -2.01615234 128.58365234 -2.08886719 129.46386719 C-3.97104806 153.01602473 -4.56766624 177.65481212 0.125 200.875 C0.455 202.855 0.785 204.835 1.125 206.875 C-20.325 206.875 -41.775 206.875 -63.875 206.875 C-60.69448424 196.2732808 -60.69448424 196.2732808 -59.2265625 191.4921875 C-52.20229743 168.3012193 -48.07114839 144.87621693 -44.49853516 120.95336914 C-44.07738427 118.16217835 -43.63180078 115.37620552 -43.16943359 112.59155273 C-41.10775452 100.10108333 -39.56815327 87.57142692 -38.14013672 74.99389648 C-37.7485028 71.54933153 -37.34929018 68.10570348 -36.94921875 64.66210938 C-35.69172213 53.7446452 -34.47318891 42.85213874 -33.875 31.875 C-46.68079027 30.10768505 -60.49523311 28.48301467 -71.875 35.875 C-74.36844647 38.59710313 -74.84221992 39.61275936 -75.3125 43.375 C-75.15369168 46.84516755 -75.15369168 46.84516755 -73.3125 49.125 C-70.28226788 51.30055127 -67.35569187 52.53627236 -63.875 53.875 C-64.99959671 55.64608948 -66.12469203 57.41686236 -67.25 59.1875 C-67.87648437 60.17363281 -68.50296875 61.15976563 -69.1484375 62.17578125 C-70.37151613 64.08787929 -71.6159356 65.9864034 -72.875 67.875 C-82.45698252 67.23620117 -91.99493582 62.54429635 -98.875 55.875 C-106.80552947 46.21353091 -107.82029128 36.13239191 -107.11767578 24.06201172 C-106.1165888 15.04014331 -100.80368058 5.95063971 -93.84375 0.1953125 C-66.31427415 -19.2885771 -29.58478344 -8.0685773 0 0 Z " fill="#030303" transform="translate(109.875,142.125)"/>
<path d="M0 0 C3.77236566 2.87550422 5.02644159 5.61150817 6.15625 10.08984375 C8.22682984 30.18759649 4.86330571 54.40287028 -7.15625 71.15234375 C-11.80766307 76.64474892 -18.29534606 81.79414342 -25.59375 82.40234375 C-30.00838756 82.33824738 -32.46322372 80.99866869 -35.84375 78.08984375 C-43.18350786 68.39087801 -41.67428864 54.27496727 -40.44921875 42.85546875 C-38.24112222 28.43873526 -31.48359363 12.90173034 -19.78125 3.71484375 C-13.98067977 -0.312722 -6.91306471 -3.41259338 0 0 Z " fill="#F9FAF8" transform="translate(215.84375,232.91015625)"/>
<path d="M0 0 C0.96800537 0.01063477 1.93601074 0.02126953 2.93334961 0.03222656 C11.35737431 0.25643205 17.68552215 1.99072991 25 6.125 C29.47492863 11.12639082 32.40279968 16.78009984 32.625 23.5625 C32.16992903 31.39710025 29.95478735 38.05041617 24.125 43.5 C16.25498805 47.89256481 9.31315324 48.72450608 0.4375 48.8125 C-0.99625977 48.85600586 -0.99625977 48.85600586 -2.45898438 48.90039062 C-11.54270827 48.98088716 -18.76630625 46.38211638 -25.43359375 40.1015625 C-30.69665064 34.25372151 -30.44998048 27.67584526 -30.29296875 20.109375 C-29.56855887 13.8537233 -26.9487499 10.5737499 -22.625 6.25 C-15.15836193 1.49850305 -8.84012417 -0.17461217 0 0 Z " fill="#070707" transform="translate(306.875,373.5)"/>
<path d="M0 0 C4.91939958 2.46818151 7.80376991 5.24059238 10.265625 10.13671875 C11.10325364 16.69814312 11.34746511 23.64734757 7.265625 29.13671875 C2.94983553 33.13671875 2.94983553 33.13671875 0.265625 33.13671875 C0.265625 33.79671875 0.265625 34.45671875 0.265625 35.13671875 C1.8125 35.04390625 1.8125 35.04390625 3.390625 34.94921875 C7.62368144 35.15404406 9.72682202 35.85615683 13.265625 38.13671875 C15.640625 40.82421875 15.640625 40.82421875 17.265625 43.13671875 C16.275625 43.46671875 15.285625 43.79671875 14.265625 44.13671875 C11.578125 42.19921875 11.578125 42.19921875 9.265625 40.13671875 C9.72384968 43.60613421 10.15694183 46.81066924 11.265625 50.13671875 C11.39344286 52.81066839 11.30954371 55.45767732 11.265625 58.13671875 C4.60206082 61.62715713 -2.33087991 62.26390726 -9.734375 63.13671875 C-10.99742835 58.06195081 -12.00473584 53.40875521 -11.734375 48.13671875 C-14.72770239 49.13449455 -15.68203815 49.88892125 -17.734375 52.13671875 C-18.064375 51.80671875 -18.394375 51.47671875 -18.734375 51.13671875 C-18.56458919 46.72228774 -18.21050736 44.67236766 -15.234375 41.32421875 C-14.409375 40.60234375 -13.584375 39.88046875 -12.734375 39.13671875 C-12.404375 38.47671875 -12.074375 37.81671875 -11.734375 37.13671875 C-12.95125 36.86859375 -14.168125 36.60046875 -15.421875 36.32421875 C-20.06011793 35.10749657 -23.3457384 34.20049359 -26.1484375 30.03515625 C-29.89653034 23.27183789 -30.97669309 18.01829807 -29.0703125 10.52734375 C-26.93679097 4.2566457 -24.48625696 1.37868858 -18.734375 -1.86328125 C-11.84734345 -4.15895843 -6.45650519 -2.82224537 0 0 Z " fill="#F8F9F7" transform="translate(287.734375,67.86328125)"/>
<path d="M0 0 C5.775 -0.04125 11.55 -0.0825 17.5 -0.125 C19.30662109 -0.14320801 21.11324219 -0.16141602 22.97460938 -0.18017578 C24.43098658 -0.18602532 25.88736709 -0.19111978 27.34375 -0.1953125 C28.08012695 -0.20554443 28.81650391 -0.21577637 29.57519531 -0.22631836 C37.23874827 -0.22885596 43.88950378 1.02634029 50 6 C53.35818907 9.80594761 53.52545821 13.54250166 53.3359375 18.43359375 C52.78417176 22.64882739 51.66901728 25.68264024 49 29 C42.0068158 33.94789561 34.14756808 33.47696626 25.9375 33.25 C24.06674805 33.22292969 24.06674805 33.22292969 22.15820312 33.1953125 C19.10513313 33.14852216 16.05246274 33.07679152 13 33 C13 37.95 13 42.9 13 48 C8.71 48 4.42 48 0 48 C0 32.16 0 16.32 0 0 Z " fill="#0A0A0A" transform="translate(382,374)"/>
<path d="M0 0 C-1.98 2.97 -3.96 5.94 -6 9 C-8.40885417 7.99088542 -10.81770833 6.98177083 -13.2265625 5.97265625 C-18.32160529 4.18580321 -23.25366237 3.84394811 -28.625 3.8125 C-29.73101562 3.79832031 -30.83703125 3.78414063 -31.9765625 3.76953125 C-34.9000427 3.99238052 -36.53458529 4.47865872 -39 6 C-38.67 7.32 -38.34 8.64 -38 10 C-36.84383179 10.15033691 -36.84383179 10.15033691 -35.66430664 10.30371094 C-32.12833625 10.77167191 -28.59557327 11.26066479 -25.0625 11.75 C-23.24395508 11.98589844 -23.24395508 11.98589844 -21.38867188 12.2265625 C-13.2494435 13.37355403 -5.75580976 14.70221582 0.5625 20.25 C2.47200951 23.90297472 2.74381376 27.01472416 2 31 C-0.41791407 36.46658833 -3.65941943 38.14498738 -8.9765625 40.23828125 C-9.97816406 40.61533203 -9.97816406 40.61533203 -11 41 C-11.99 41.495 -11.99 41.495 -13 42 C-27.23702913 43.04438816 -41.12182523 42.55038025 -54 36 C-52.66511872 32.40608886 -51.03977277 29.24509304 -49 26 C-46.59099437 26.93333202 -44.24695574 27.87061975 -41.95703125 29.0703125 C-32.84657062 33.55086691 -20.7852423 33.40236488 -11 31 C-11.495 28.03 -11.495 28.03 -12 25 C-16.79084252 23.91819685 -21.49924531 23.01517267 -26.390625 22.5625 C-27.16937988 22.4888623 -27.94813477 22.41522461 -28.75048828 22.33935547 C-30.29975356 22.19949788 -31.85028917 22.07289366 -33.40185547 21.96142578 C-39.77047035 21.38017991 -45.58416002 19.64232497 -50 14.8125 C-51.42865248 10.79441491 -51.81080016 7.20698196 -51 3 C-40.45303042 -11.26942944 -13.51774554 -8.11064732 0 0 Z " fill="#080808" transform="translate(136,380)"/>
<path d="M0 0 C4.29 0 8.58 0 13 0 C13 15.84 13 31.68 13 48 C8.71 48 4.42 48 0 48 C0 41.4 0 34.8 0 28 C-8.91 28 -17.82 28 -27 28 C-27 34.27 -27 40.54 -27 47 C-30.96 47 -34.92 47 -39 47 C-39 31.82 -39 16.64 -39 1 C-35.37 1 -31.74 1 -28 1 C-28 6.94 -28 12.88 -28 19 C-18.76 19 -9.52 19 0 19 C0 12.73 0 6.46 0 0 Z " fill="#0C0C0C" transform="translate(220,374)"/>
<path d="M0 0 C2.14576637 -0.02685938 4.29162645 -0.04633088 6.4375 -0.0625 C7.63246094 -0.07410156 8.82742188 -0.08570313 10.05859375 -0.09765625 C13 0 13 0 14 1 C14.23363881 2.84891946 14.41303635 4.70488031 14.5625 6.5625 C14.68818359 8.08037109 14.68818359 8.08037109 14.81640625 9.62890625 C14.87699219 10.41136719 14.93757813 11.19382812 15 12 C15.99 11.67 16.98 11.34 18 11 C20.4453125 11.41796875 20.4453125 11.41796875 23.125 12.1875 C24.01445312 12.42855469 24.90390625 12.66960937 25.8203125 12.91796875 C28 14 28 14 28.7890625 15.87890625 C29.59537314 23.98680771 28.70478372 29.89619022 24.1875 36.75 C21.6046387 39.40665733 19.2964954 41.28582239 16 43 C13.04105771 42.82246346 10.67787592 42.2193128 7.875 41.3125 C5.92307781 40.79495599 5.92307781 40.79495599 4.0625 42 C1.26823537 43.35479497 -0.04778974 42.85978189 -3 42 C-5.1328125 40.546875 -5.1328125 40.546875 -7.125 38.75 C-8.11886719 37.87601562 -8.11886719 37.87601562 -9.1328125 36.984375 C-13.10560025 32.76224911 -14.34439528 29.76585571 -14.26367188 23.87304688 C-14.23853516 23.15181641 -14.21339844 22.43058594 -14.1875 21.6875 C-14.17396484 20.94693359 -14.16042969 20.20636719 -14.14648438 19.44335938 C-14.11135979 17.62858925 -14.05755972 15.81419712 -14 14 C-8.86048829 12.58220367 -5.49046024 12 0 12 C0 8.04 0 4.08 0 0 Z " fill="#161616" transform="translate(252,446)"/>
<path d="M0 0 C2.875 0.6875 2.875 0.6875 5.25 2.75 C9.06328643 9.64324854 6.2970486 19.10586428 4.51318359 26.47314453 C1.31339045 37.57571678 -4.78186427 47.85953904 -12.125 56.6875 C-12.90875 57.63367188 -13.6925 58.57984375 -14.5 59.5546875 C-19.78524559 65.64923632 -25.2803575 70.42052074 -32.125 74.6875 C-35.87096444 67.19557112 -27.24965696 48.89537786 -24.77734375 41.359375 C-11.55830192 2.54282642 -11.55830192 2.54282642 0 0 Z " fill="#F6F7F6" transform="translate(361.125,145.3125)"/>
<path d="M0 0 C2.97 0.99 5.94 1.98 9 3 C8.38097657 9.01166984 7.55153224 14.92560949 6.5 20.875 C5.46106401 26.88776428 4.61158086 32.83809121 4.2109375 38.93359375 C4 41 4 41 3 44 C2.80102325 45.38506469 2.63781759 46.77548814 2.5 48.16796875 C2.4175 48.97943359 2.335 49.79089844 2.25 50.62695312 C2.1675 51.47193359 2.085 52.31691406 2 53.1875 C1.83410624 54.84773366 1.66744677 56.507891 1.5 58.16796875 C1.41741943 58.99304932 1.33483887 59.81812988 1.24975586 60.66821289 C1.03636345 62.66050117 0.77501143 64.64755411 0.50390625 66.6328125 C-0.33795124 73.28777011 -0.67719397 79.99363168 -1.0625 86.6875 C-1.10735535 87.45814789 -1.15221069 88.22879578 -1.19842529 89.02279663 C-2.54298495 112.98943573 -2.16390096 137.00671996 -2 161 C-12.23 161 -22.46 161 -33 161 C-30.15418139 159.10278759 -28.99746788 158.65208719 -25.76953125 158.1484375 C-24.96708984 158.01953125 -24.16464844 157.890625 -23.33789062 157.7578125 C-22.50451172 157.63148438 -21.67113281 157.50515625 -20.8125 157.375 C-19.5450293 157.17390625 -19.5450293 157.17390625 -18.25195312 156.96875 C-16.16900055 156.63924338 -14.08462573 156.31875011 -12 156 C-9.78614402 150.61289509 -9.6733488 145.73950745 -9.62109375 140.01171875 C-9.60446182 139.0434465 -9.5878299 138.07517426 -9.57069397 137.07756042 C-9.53609068 135.012932 -9.50564114 132.94823045 -9.47900391 130.88348389 C-9.40978749 125.55351462 -9.30965559 120.22409518 -9.21484375 114.89453125 C-9.1972702 113.85458008 -9.17969666 112.81462891 -9.16159058 111.74316406 C-9.02471213 103.78313153 -8.81771084 95.83015729 -8.5 87.875 C-8.46447021 86.90780029 -8.42894043 85.94060059 -8.39233398 84.9440918 C-8.35567627 84.07308838 -8.31901855 83.20208496 -8.28125 82.3046875 C-8.23581055 81.2216333 -8.23581055 81.2216333 -8.18945312 80.11669922 C-8 78 -8 78 -7.51622009 75.68841553 C-7.01225634 73.06382963 -6.74267484 70.53293768 -6.55102539 67.86865234 C-6.44069725 66.36955826 -6.44069725 66.36955826 -6.32814026 64.84017944 C-6.25208054 63.7662796 -6.17602081 62.69237976 -6.09765625 61.5859375 C-6.01503036 60.46168365 -5.93240448 59.33742981 -5.84727478 58.17910767 C-5.58271205 54.57794804 -5.32212754 50.97651858 -5.0625 47.375 C-3.12358456 20.48380498 -3.12358456 20.48380498 -1.93359375 8.8515625 C-1.85456314 8.05906097 -1.77553253 7.26655945 -1.69410706 6.45004272 C-1.12287359 1.12287359 -1.12287359 1.12287359 0 0 Z " fill="#3E3E3E" transform="translate(102,180)"/>
<path d="M0 0 C1.05900513 0.01703979 1.05900513 0.01703979 2.1394043 0.03442383 C8.93480639 0.28784894 13.31488721 1.60207118 18.125 6.5625 C20.10083661 12.36652004 19.92741134 18.25324826 17.875 24 C14.96708406 28.15416563 11.86219893 29.86905008 7.125 31.5 C-1.22852861 32.37632385 -7.02881286 31.38151668 -14.1875 27.125 C-17.6593597 23.7817277 -18.04078567 20.20705815 -18.25 15.5625 C-18.13634609 10.78193234 -17.15304669 8.12310424 -13.875 4.5 C-9.31608671 0.8394608 -5.73755137 -0.15547264 0 0 Z " fill="#F8F8F7" transform="translate(306.875,382.5)"/>
<path d="M0 0 C4.91939958 2.46818151 7.80376991 5.24059238 10.265625 10.13671875 C11.10325364 16.69814312 11.34746511 23.64734757 7.265625 29.13671875 C2.94983553 33.13671875 2.94983553 33.13671875 0.265625 33.13671875 C0.265625 33.79671875 0.265625 34.45671875 0.265625 35.13671875 C1.8125 35.04390625 1.8125 35.04390625 3.390625 34.94921875 C7.62368144 35.15404406 9.72682202 35.85615683 13.265625 38.13671875 C15.640625 40.82421875 15.640625 40.82421875 17.265625 43.13671875 C16.275625 43.46671875 15.285625 43.79671875 14.265625 44.13671875 C11.578125 42.19921875 11.578125 42.19921875 9.265625 40.13671875 C9.72384968 43.60613421 10.15694183 46.81066924 11.265625 50.13671875 C11.39344286 52.81066839 11.30954371 55.45767732 11.265625 58.13671875 C4.60206082 61.62715713 -2.33087991 62.26390726 -9.734375 63.13671875 C-10.99742835 58.06195081 -12.00473584 53.40875521 -11.734375 48.13671875 C-14.72770239 49.13449455 -15.68203815 49.88892125 -17.734375 52.13671875 C-18.064375 51.80671875 -18.394375 51.47671875 -18.734375 51.13671875 C-18.56458919 46.72228774 -18.21050736 44.67236766 -15.234375 41.32421875 C-14.409375 40.60234375 -13.584375 39.88046875 -12.734375 39.13671875 C-12.404375 38.47671875 -12.074375 37.81671875 -11.734375 37.13671875 C-12.95125 36.86859375 -14.168125 36.60046875 -15.421875 36.32421875 C-20.06011793 35.10749657 -23.3457384 34.20049359 -26.1484375 30.03515625 C-29.89653034 23.27183789 -30.97669309 18.01829807 -29.0703125 10.52734375 C-26.93679097 4.2566457 -24.48625696 1.37868858 -18.734375 -1.86328125 C-11.84734345 -4.15895843 -6.45650519 -2.82224537 0 0 Z M-24.046875 5.69921875 C-27.80238077 11.1238382 -27.39631971 16.69780207 -26.734375 23.13671875 C-25.14000013 27.58997271 -22.84310783 30.29196993 -19.109375 33.13671875 C-13.15017694 34.90240707 -7.35206542 34.9763553 -1.421875 33.07421875 C2.58333887 30.18673898 6.04183491 26.58429894 8.265625 22.13671875 C8.85931702 16.19979858 7.75773018 11.90218825 4.265625 7.13671875 C-1.41073455 1.95395568 -5.53775145 -0.17743055 -13.1953125 -0.078125 C-18.06669625 0.33406901 -20.82749936 2.1318025 -24.046875 5.69921875 Z " fill="#272725" transform="translate(287.734375,67.86328125)"/>
<path d="M0 0 C3.47565519 2.01712132 5.70453512 4.11360536 7 8 C7.49326287 15.27562739 6.36679207 20.71703035 2.0625 26.6875 C-6.41823323 33.09131897 -17.42889501 36.20508317 -28 36 C-27.72422412 24.66811837 -23.66793222 14.39821148 -16 6 C-10.85948701 1.34905967 -7.09031986 -0.85572826 0 0 Z " fill="#F6F6F5" transform="translate(459,227)"/>
<path d="M0 0 C6.53886159 -0.69562357 10.69248774 1.2103009 16 5 C22.12237467 9.99352034 24.12778698 16.30400279 25 24 C25.13895965 29.70551959 24.62147311 35.33395692 24 41 C23.86271484 42.30710937 23.86271484 42.30710937 23.72265625 43.640625 C19.93419569 67.98893333 4.31057469 91.35797142 -14.4921875 106.75 C-16.45578989 108.3778569 -18.2333422 110.16267589 -20 112 C-20.99 111.67 -21.98 111.34 -23 111 C-22.17757813 110.21238281 -21.35515625 109.42476563 -20.5078125 108.61328125 C-0.51349338 89.21791885 16.21033622 65.6856052 17.3125 36.9375 C17.08377926 28.13175137 14.61686721 20.19707816 9.98828125 12.7421875 C9 11 9 11 9 9 C8.01 8.67 7.02 8.34 6 8 C6 7.34 6 6.68 6 6 C4.02 5.34 2.04 4.68 0 4 C0 2.68 0 1.36 0 0 Z " fill="#3B3B3B" transform="translate(359,122)"/>
<path d="M0 0 C0.28875 0.61875 0.5775 1.2375 0.875 1.875 C1.93720042 4.13325765 1.93720042 4.13325765 4 6 C7.95158471 6.34361606 10.60535554 6.08901197 14 4 C13.67 2.68 13.34 1.36 13 0 C13.99 0.33 14.98 0.66 16 1 C16 1.66 16 2.32 16 3 C16.556875 2.773125 17.11375 2.54625 17.6875 2.3125 C20.92123084 1.87550935 22.39073978 3.18801373 25 5 C24.74597488 11.4268355 24.26136176 15.88636589 20 21 C19.360625 21.804375 18.72125 22.60875 18.0625 23.4375 C16 25 16 25 13.5625 24.875 C11 24 11 24 8.4375 22.75 C7.633125 22.5025 6.82875 22.255 6 22 C4.64664105 22.97272675 3.31337396 23.9739266 2 25 C-1.08125987 24.78854099 -2.62785565 24.32013205 -4.984375 22.29296875 C-5.56703125 21.59816406 -6.1496875 20.90335937 -6.75 20.1875 C-7.34296875 19.50042969 -7.9359375 18.81335938 -8.546875 18.10546875 C-11.57022765 13.72485832 -11.33254462 9.15444156 -11 4 C-7.51852477 1.67901651 -6.05234873 2 -2 2 C-1.34 1.34 -0.68 0.68 0 0 Z " fill="#F6F7F7" transform="translate(252,460)"/>
<path d="M0 0 C0 0.66 0 1.32 0 2 C-0.825 2.474375 -1.65 2.94875 -2.5 3.4375 C-14.43303622 11.19677472 -21.38536433 30.08044233 -24.546875 43.375 C-25.44339026 48.56860565 -25.79994716 53.73800417 -26 59 C-26.05285156 60.16015625 -26.10570312 61.3203125 -26.16015625 62.515625 C-26.33724024 69.50659281 -25.63958264 75.5122273 -23.734375 82.234375 C-22.44399334 87.09389741 -22 91.97256888 -22 97 C-31.81849721 86.63603072 -33.38785663 72.86502498 -33.3125 59.125 C-33.30758545 58.06434326 -33.3026709 57.00368652 -33.29760742 55.91088867 C-33.18703903 48.54249784 -32.53756042 41.96281822 -30 35 C-29.68289062 33.97519531 -29.36578125 32.95039063 -29.0390625 31.89453125 C-26.87555535 25.4730579 -23.97313222 19.97213692 -20.125 14.4375 C-19.72659912 13.85371582 -19.32819824 13.26993164 -18.91772461 12.66845703 C-15.81403279 8.42234379 -12.67009645 6.39699299 -8 4 C-6.88665851 3.26368841 -5.78198083 2.51406527 -4.6875 1.75 C-2 0 -2 0 0 0 Z " fill="#3E3E3E" transform="translate(194,227)"/>
<path d="M0 0 C-0.49628906 0.37769531 -0.99257813 0.75539062 -1.50390625 1.14453125 C-16.86557159 13.59126958 -21.55588448 32.28322061 -24 51 C-26.97 51.99 -29.94 52.98 -33 54 C-35.84572792 42.6170883 -28.55880724 26.93114969 -23 17 C-16.71428571 7.57142857 -16.71428571 7.57142857 -12 6 C-11.67 5.01 -11.34 4.02 -11 3 C-9.51171875 1.796875 -9.51171875 1.796875 -7.6875 0.75 C-7.09324219 0.39421875 -6.49898438 0.0384375 -5.88671875 -0.328125 C-3.5508436 -1.15994803 -2.30725794 -0.7945524 0 0 Z " fill="#3C3C3C" transform="translate(446,220)"/>
<path d="M0 0 C3.7501919 -0.0539165 7.49960961 -0.09363473 11.25 -0.125 C12.84521484 -0.15013672 12.84521484 -0.15013672 14.47265625 -0.17578125 C16.00986328 -0.18544922 16.00986328 -0.18544922 17.578125 -0.1953125 C18.52075195 -0.20578613 19.46337891 -0.21625977 20.43457031 -0.22705078 C23.13506607 0.01195389 24.73292865 0.53635819 27 2 C28.58368102 5.16736204 28.42056706 7.5153015 28 11 C23.52188326 15.27422272 19.70047277 15.43167017 13.65234375 15.3515625 C12.65332031 15.31804687 11.65429688 15.28453125 10.625 15.25 C9.60277344 15.23195313 8.58054687 15.21390625 7.52734375 15.1953125 C5.01782302 15.14840557 2.50878783 15.07666924 0 15 C0 10.05 0 5.1 0 0 Z " fill="#EFF1EF" transform="translate(394,384)"/>
<path d="M0 0 C1.32 0 2.64 0 4 0 C4.67218507 2.74875682 5.33792435 5.49880726 6 8.25 C6.19078125 9.02730469 6.3815625 9.80460937 6.578125 10.60546875 C6.84882813 11.73662109 6.84882813 11.73662109 7.125 12.890625 C7.29257812 13.58188477 7.46015625 14.27314453 7.6328125 14.98535156 C8 17 8 17 8 21 C4.01606389 22.84566532 0.55623317 23.36022829 -3.8125 23.625 C-5.55466797 23.73714844 -5.55466797 23.73714844 -7.33203125 23.8515625 C-8.65267578 23.92503906 -8.65267578 23.92503906 -10 24 C-13.35416667 6.03125 -13.35416667 6.03125 -10 1 C-9.01 1 -8.02 1 -7 1 C-7 1.66 -7 2.32 -7 3 C-3.20452079 2.03223902 -3.20452079 2.03223902 0 0 Z " fill="#F7F7F7" transform="translate(289,104)"/>
<path d="M0 0 C0.33 0 0.66 0 1 0 C2.82057489 9.93040847 2.82057489 9.93040847 1.1171875 14.2265625 C-0.4336907 16.38006765 -2.09159483 18.15292354 -4 20 C-5.25490234 21.2375 -5.25490234 21.2375 -6.53515625 22.5 C-16.18116084 31.61689886 -24.55094705 38.39112979 -38.27734375 38.0703125 C-38.84582031 38.04710937 -39.41429687 38.02390625 -40 38 C-36.22551467 35.48367644 -32.25862587 33.33965797 -28.26953125 31.18554688 C-24.20652383 28.91913696 -21.22626485 26.40550179 -18 23 C-16.58688622 21.87054045 -15.17027596 20.74543993 -13.75 19.625 C-8.35042259 14.9320787 -5.20485026 9.16224196 -1.75 3 C-1.1725 2.01 -0.595 1.02 0 0 Z " fill="#434343" transform="translate(390,301)"/>
<path d="M0 0 C4.22663314 1.50951183 5.83078032 4.1851654 8 8 C10.74822625 18.992905 8.50293637 27.5980818 3.1875 37.3125 C-1.18748816 42.68748545 -7.5031677 46.60220004 -14 49 C-15.32 49 -16.64 49 -18 49 C-16.57781759 45.47840547 -15.06022349 44.15056108 -11.8125 42.25 C-5.04125284 37.92513891 0.02006649 32.94788477 2 25 C2.26929413 22.01470253 2.27983232 19.05816226 2.25 16.0625 C2.25773437 15.28970703 2.26546875 14.51691406 2.2734375 13.72070312 C2.25672201 8.77709765 1.57313475 4.68819127 0 0 Z " fill="#404040" transform="translate(486,218)"/>
<path d="M0 0 C2.14576637 -0.02685938 4.29162645 -0.04633088 6.4375 -0.0625 C7.63246094 -0.07410156 8.82742188 -0.08570313 10.05859375 -0.09765625 C13 0 13 0 14 1 C14.23363881 2.84891946 14.41303635 4.70488031 14.5625 6.5625 C14.64628906 7.57441406 14.73007812 8.58632813 14.81640625 9.62890625 C14.87699219 10.41136719 14.93757813 11.19382812 15 12 C15.99 12 16.98 12 18 12 C17.01 12.99 16.02 13.98 15 15 C14.34 14.67 13.68 14.34 13 14 C13.33 15.32 13.66 16.64 14 18 C11.58330297 20.23079726 10.24984673 20.96940652 6.9375 21.375 C4 21 4 21 2.125 19.6875 C1 18 1 18 1 15 C1.66 15 2.32 15 3 15 C2.67 11.7 2.34 8.4 2 5 C1.67 6.98 1.34 8.96 1 11 C0.67 11 0.34 11 0 11 C0 7.37 0 3.74 0 0 Z " fill="#191919" transform="translate(252,446)"/>
<path d="M0 0 C6.41255663 1.41076246 10.66242772 3.78722293 14.6484375 9.265625 C17.53944111 15.11447623 16.83198364 22.50404907 14.8125 28.5625 C12.79810878 31.27150889 10.80723571 33.12850953 8 35 C7.34 35 6.68 35 6 35 C6 35.66 6 36.32 6 37 C7.546875 36.9071875 7.546875 36.9071875 9.125 36.8125 C13.35805644 37.01732531 15.46119702 37.71943808 19 40 C21.375 42.6875 21.375 42.6875 23 45 C21.515 45.495 21.515 45.495 20 46 C17.3125 44.0625 17.3125 44.0625 15 42 C15.45822468 45.46941546 15.89131683 48.67395049 17 52 C17.12781786 54.67394964 17.04391871 57.32095857 17 60 C13.86501708 61.85776765 11.62528568 62.20140476 8 62 C10.35953094 59.64046906 11.77895617 59.50858587 15 59 C14.71125 57.90300781 14.4225 56.80601563 14.125 55.67578125 C13.74968495 54.22143543 13.37470245 52.76700377 13 51.3125 C12.80921875 50.59126953 12.6184375 49.87003906 12.421875 49.12695312 C11.45134572 45.33149039 10.75044761 41.95384561 11 38 C10.278125 38.33 9.55625 38.66 8.8125 39 C5.98302573 40.00603529 3.97104534 40.16977402 1 40 C1 38.33333333 1 36.66666667 1 35 C1.886875 34.62875 2.77375 34.2575 3.6875 33.875 C7.99674704 31.43580356 10.7537294 28.4925412 13 24 C13.58778049 18.12219515 12.60631975 13.65697984 9 9 C6.68937143 7.23421844 4.36138685 5.75020002 1.828125 4.32421875 C1.22484375 3.88722656 0.6215625 3.45023437 0 3 C0 2.01 0 1.02 0 0 Z " fill="#161615" transform="translate(282,66)"/>
<path d="M0 0 C2.6484375 1.81640625 2.6484375 1.81640625 5 5 C4.88392346 8.80518508 3.70809066 12.30626029 2.625 15.9375 C2.0195711 18.18637865 1.42360765 20.43782174 0.8359375 22.69140625 C0.52624023 23.87879395 0.21654297 25.06618164 -0.10253906 26.28955078 C-1.6284488 32.59824942 -2.70499758 38.97162404 -3.75 45.375 C-3.95641113 46.63932861 -4.16282227 47.90365723 -4.37548828 49.20629883 C-5.75990475 57.94977186 -6.86137337 66.69072456 -7.640625 75.5078125 C-8 79 -8 79 -8.50976562 80.90136719 C-9.51721058 85.21411461 -9.22768042 89.71688287 -9.25 94.125 C-9.270625 95.12015625 -9.29125 96.1153125 -9.3125 97.140625 C-9.34792097 103.92374155 -8.33020546 109.62971735 -6 116 C-6.99 116 -7.98 116 -9 116 C-11.77852193 109.96832086 -11.38286486 104.09985845 -11.375 97.5625 C-11.37545319 96.90539032 -11.37590637 96.24828064 -11.37637329 95.57125854 C-11.34856459 81.68635294 -9.63486191 68.170175 -7.52148438 54.45361328 C-6.74520271 49.31256438 -6.09075755 44.1578559 -5.4375 39 C-4.44134164 31.30914137 -3.41865261 23.62205544 -2.375 15.9375 C-2.25181396 15.02677734 -2.12862793 14.11605469 -2.00170898 13.17773438 C-1.40031295 8.77220712 -0.76258604 4.38127263 0 0 Z " fill="#404040" transform="translate(255,215)"/>
<path d="M0 0 C0.66 0 1.32 0 2 0 C3.485 3.96 3.485 3.96 5 8 C-16.61062742 33.07899972 -16.61062742 33.07899972 -29 35 C-29 33.68 -29 32.36 -29 31 C-27.56429734 30.18432826 -26.12636566 29.37257907 -24.6875 28.5625 C-23.88699219 28.11003906 -23.08648437 27.65757812 -22.26171875 27.19140625 C-20 26 -20 26 -17 25 C-15.93162241 23.13983951 -15.93162241 23.13983951 -15 21 C-14.13480251 19.74907979 -13.23679298 18.52041165 -12.3125 17.3125 C-11.78785156 16.62285156 -11.26320313 15.93320312 -10.72265625 15.22265625 C-9.52944155 13.68311166 -8.3283678 12.14963823 -7.12109375 10.62109375 C-6.50363281 9.83863281 -5.88617188 9.05617188 -5.25 8.25 C-4.67765625 7.53328125 -4.1053125 6.8165625 -3.515625 6.078125 C-2.08493716 4.11646023 -1.01159931 2.20171615 0 0 Z " fill="#414141" transform="translate(289,313)"/>
<path d="M0 0 C0.66 0 1.32 0 2 0 C2.48876743 7.91803242 -0.68720713 17.23367001 -5.96875 23.23828125 C-12.99154388 28.68094651 -20.37741629 29.41697833 -29 30 C-29 29.34 -29 28.68 -29 28 C-28.20335937 27.75765625 -27.40671875 27.5153125 -26.5859375 27.265625 C-20.7500688 25.41972979 -15.92232932 23.6269795 -11 20 C-10.34 20 -9.68 20 -9 20 C-8.9175 18.948125 -8.835 17.89625 -8.75 16.8125 C-7.92130111 12.5999473 -6.72592345 11.20696876 -4 8 C-2.8778768 5.70675259 -1.95705603 3.36985303 -1 1 C-0.67 0.67 -0.34 0.34 0 0 Z " fill="#3C3C3C" transform="translate(189,155)"/>
<path d="M0 0 C0.33 0 0.66 0 1 0 C1 3.63 1 7.26 1 11 C-0.32 11.33 -1.64 11.66 -3 12 C-3.99 12.33 -4.98 12.66 -6 13 C-7.99673484 13.35236497 -9.99650739 13.68834559 -12 14 C-12.3889476 21.39000438 -11.12898364 26.59477695 -6.3125 32.4375 C-5.549375 33.283125 -4.78625 34.12875 -4 35 C-5.98 35.495 -5.98 35.495 -8 36 C-9.14842923 34.71064081 -10.29366227 33.41843421 -11.4375 32.125 C-12.07558594 31.40570313 -12.71367187 30.68640625 -13.37109375 29.9453125 C-16.56748859 26.12803521 -16.11597671 22.63854048 -16.0625 17.875 C-16.05798828 17.12089844 -16.05347656 16.36679687 -16.04882812 15.58984375 C-16.03703499 13.72652873 -16.01909942 11.86325445 -16 10 C-11.34201396 8.79534844 -6.76350585 7.71452588 -2 7 C-1.34 4.69 -0.68 2.38 0 0 Z " fill="#101010" transform="translate(254,450)"/>
<path d="M0 0 C0.66 0 1.32 0 2 0 C2.02578125 1.29550781 2.0515625 2.59101563 2.078125 3.92578125 C2.5927191 21.97076712 3.58162559 43.47867132 17 57 C17.74056641 57.76183594 17.74056641 57.76183594 18.49609375 58.5390625 C19.64873127 59.70802633 20.82197601 60.85662378 22 62 C13.71008162 59.212369 7.77748907 51.89265871 3.92578125 44.2421875 C2.40156263 40.55062004 1.56837373 36.94557115 1 33 C0.88914062 32.26136719 0.77828125 31.52273438 0.6640625 30.76171875 C-0.53665469 20.58807445 -0.08796048 10.22642095 0 0 Z " fill="#393939" transform="translate(314,260)"/>
<path d="M0 0 C6.0546875 -0.1953125 6.0546875 -0.1953125 8 0 C8.66 0.66 9.32 1.32 10 2 C9.67 2.33 9.34 2.66 9 3 C9.99 3.66 10.98 4.32 12 5 C10.35 5 8.7 5 7 5 C7 4.34 7 3.68 7 3 C3.88214887 3.64644661 3.88214887 3.64644661 3 6 C2.75154305 12.70833752 3.37688096 19.32372459 4 26 C4.99 25.67 5.98 25.34 7 25 C9.72331488 24.76811378 12.25039269 24.86906632 15 25 C15.66 25.66 16.32 26.32 17 27 C12.38 27.66 7.76 28.32 3 29 C1.75408309 23.86059274 0.72711496 19.3212582 1 14 C-1.99332739 14.9977758 -2.94766315 15.7522025 -5 18 C-5.33 17.67 -5.66 17.34 -6 17 C-5.83021419 12.58556899 -5.47613236 10.53564891 -2.5 7.1875 C-1.2625 6.1046875 -1.2625 6.1046875 0 5 C0.33 4.34 0.66 3.68 1 3 C0.67 2.01 0.34 1.02 0 0 Z " fill="#232424" transform="translate(275,102)"/>
<path d="M0 0 C1 2 1 2 0.44262695 4.17626953 C0.12769287 5.06942871 -0.18724121 5.96258789 -0.51171875 6.8828125 C-1.02750488 8.37433838 -1.02750488 8.37433838 -1.55371094 9.89599609 C-1.92786133 10.96156738 -2.30201172 12.02713867 -2.6875 13.125 C-6.50076396 24.27311178 -9.61445626 35.32808624 -12.01953125 46.87109375 C-12.2810498 48.10496826 -12.2810498 48.10496826 -12.54785156 49.36376953 C-12.88279453 50.95744977 -13.20694711 52.55344869 -13.51855469 54.15185547 C-14.8985086 60.77711806 -14.8985086 60.77711806 -18 63 C-18.66 62.67 -19.32 62.34 -20 62 C-19.546047 59.79076207 -19.08663994 57.58264447 -18.625 55.375 C-18.36976563 54.14523438 -18.11453125 52.91546875 -17.8515625 51.6484375 C-16.68831221 46.66460369 -15.00078989 41.96378273 -13.1875 37.1875 C-11.13433447 31.59492224 -9.45568546 25.92076995 -7.83862305 20.19018555 C-5.83484715 13.16664967 -3.4054568 6.48658439 0 0 Z " fill="#333333" transform="translate(334,172)"/>
<path d="M0 0 C1.65 1.65 3.3 3.3 5 5 C2.2372387 10.68803797 -2.07947081 13.5041192 -7.5625 16.3125 C-10.45582778 17.12856681 -13.00858932 17.13913538 -16 17 C-14.40870074 12.8029482 -11.27939817 10.26767669 -8 7.375 C-6.91644685 6.40389105 -5.83310493 5.43254634 -4.75 4.4609375 C-3.8425 3.64882813 -2.935 2.83671875 -2 2 C-1.34 1.34 -0.68 0.68 0 0 Z " fill="#404040" transform="translate(488,320)"/>
<path d="M0 0 C0.639375 0.33 1.27875 0.66 1.9375 1 C1.6075 1.99 1.2775 2.98 0.9375 4 C-2.0325 3.505 -2.0325 3.505 -5.0625 3 C-4.546875 3.556875 -4.03125 4.11375 -3.5 4.6875 C-2.0625 7 -2.0625 7 -2.3125 9.6875 C-3.0625 12 -3.0625 12 -4.0625 13 C-6.5 13.25 -6.5 13.25 -9.0625 13 C-11.2267235 9.75366476 -11.43819856 8.75698557 -11.0625 5 C-10.4025 4.01 -9.7425 3.02 -9.0625 2 C-11.3725 2.66 -13.6825 3.32 -16.0625 4 C-16.0625 3.01 -16.0625 2.02 -16.0625 1 C-10.91553264 -1.94112421 -5.56430575 -1.81691616 0 0 Z " fill="#181816" transform="translate(362.0625,59)"/>
<path d="M0 0 C0.33 0.66 0.66 1.32 1 2 C-3.19199398 13.87172696 -11.40280642 24.56542937 -21.6484375 31.89453125 C-24 33 -24 33 -28 33 C-28 32.34 -28 31.68 -28 31 C-26.02866014 29.62464661 -24.02318078 28.29788956 -22 27 C-12.83852168 20.19896698 -5.66253284 9.83492547 0 0 Z " fill="#3D3D3D" transform="translate(221,304)"/>
<path d="M0 0 C0.66 0.66 1.32 1.32 2 2 C1.9675293 4.55029297 1.9675293 4.55029297 1.57421875 7.7421875 C1.43693359 8.89074219 1.29964844 10.03929687 1.15820312 11.22265625 C0.92520508 13.03056641 0.92520508 13.03056641 0.6875 14.875 C0.54376953 16.07253906 0.40003906 17.27007812 0.25195312 18.50390625 C-0.83530541 27.37077262 -0.83530541 27.37077262 -1.53881836 30.05859375 C-2.54693943 34.3024152 -2.22802678 38.78528958 -2.25 43.125 C-2.270625 44.12015625 -2.29125 45.1153125 -2.3125 46.140625 C-2.34792097 52.92374155 -1.33020546 58.62971735 1 65 C0.01 65 -0.98 65 -2 65 C-4.77875404 58.96781697 -4.38163314 53.10029352 -4.375 46.5625 C-4.37628906 45.2532959 -4.37757813 43.9440918 -4.37890625 42.59521484 C-4.27935177 28.23092565 -2.28266419 14.16041017 0 0 Z " fill="#222222" transform="translate(248,266)"/>
<path d="M0 0 C5.19822672 1.36144033 8.09543873 3.46730171 12 7 C11.67 7.66 11.34 8.32 11 9 C8.08482708 7.92598892 6.22189824 7.22189824 4 5 C4.45822468 8.46941546 4.89131683 11.67395049 6 15 C6.12781786 17.67394964 6.04391871 20.32095857 6 23 C2.86501708 24.85776765 0.62528568 25.20140476 -3 25 C-0.64046906 22.64046906 0.77895617 22.50858587 4 22 C3.71125 20.91460937 3.4225 19.82921875 3.125 18.7109375 C2.74961979 17.2657237 2.37464103 15.82040559 2 14.375 C1.71382813 13.30572266 1.71382813 13.30572266 1.421875 12.21484375 C0.34982713 8.04151456 -0.21946814 4.34821249 0 0 Z " fill="#1E1E1E" transform="translate(293,103)"/>
<path d="M0 0 C0.33 0.99 0.66 1.98 1 3 C1.66 3.33 2.32 3.66 3 4 C2 7 2 7 0.29296875 8.1328125 C-0.40183594 8.46023438 -1.09664063 8.78765625 -1.8125 9.125 C-2.49957031 9.45757812 -3.18664062 9.79015625 -3.89453125 10.1328125 C-7.60184758 11.65975911 -10.74515018 12.12139485 -14.75 12.0625 C-15.54921875 12.05347656 -16.3484375 12.04445313 -17.171875 12.03515625 C-17.77515625 12.02355469 -18.3784375 12.01195312 -19 12 C-15.12659928 9.41773285 -11.06814002 7.18919443 -7.00585938 4.921875 C-4.39253636 3.44585694 -2.13303514 2.13303514 0 0 Z " fill="#3C3C3C" transform="translate(369,327)"/>
<path d="M0 0 C1.98 0 3.96 0 6 0 C6.40368295 6.45892714 5.5915262 11.06108578 3 17 C-0.51760602 13.48239398 -0.05502509 8.87157039 -0.0625 4.125 C-0.0466164 2.74993391 -0.02749766 1.37488287 0 0 Z " fill="#444444" transform="translate(161,289)"/>
<path d="M0 0 C0.99 0.33 1.98 0.66 3 1 C3.02578125 1.56847656 3.0515625 2.13695313 3.078125 2.72265625 C3.47677718 8.14976209 4.10016724 12.95981336 8 17 C11.20913131 18.98996368 14.51445868 20.55656018 18 22 C18 22.33 18 22.66 18 23 C13.6547145 23.42393029 10.42309801 22.87372053 6.6796875 20.51953125 C2.62902332 16.85509319 0.31364193 11.73029325 -0.3046875 6.34765625 C-0.3125 3.875 -0.3125 3.875 0 0 Z " fill="#333332" transform="translate(258,81)"/>
<path d="M0 0 C3.63 0.66 7.26 1.32 11 2 C11 5.63 11 9.26 11 13 C10.01 13.33 9.02 13.66 8 14 C7.67 11.69 7.34 9.38 7 7 C3.08936776 5.52952664 3.08936776 5.52952664 -1 5 C-0.67 3.35 -0.34 1.7 0 0 Z " fill="#151515" transform="translate(269,458)"/>
<path d="M0 0 C1.98 0 3.96 0 6 0 C6 3.63 6 7.26 6 11 C4.02 11.99 4.02 11.99 2 13 C0 11 0 11 -0.1953125 8.3984375 C-0.17210937 7.40070313 -0.14890625 6.40296875 -0.125 5.375 C-0.10695312 4.37210937 -0.08890625 3.36921875 -0.0703125 2.3359375 C-0.04710937 1.56507813 -0.02390625 0.79421875 0 0 Z " fill="#F5F5F5" transform="translate(256,451)"/>
<path d="M0 0 C4.29 0 8.58 0 13 0 C13.33 0.66 13.66 1.32 14 2 C12.02 2.99 12.02 2.99 10 4 C10 4.33 10 4.66 10 5 C8.02 5 6.04 5 4 5 C4 8.3 4 11.6 4 15 C3.67 15 3.34 15 3 15 C2.67 11.7 2.34 8.4 2 5 C1.67 6.98 1.34 8.96 1 11 C0.67 11 0.34 11 0 11 C0 7.37 0 3.74 0 0 Z " fill="#272827" transform="translate(252,446)"/>
<path d="M0 0 C0.99 0 1.98 0 3 0 C3 0.99 3 1.98 3 3 C4.32 3.33 5.64 3.66 7 4 C7 4.66 7 5.32 7 6 C5.68 6 4.36 6 3 6 C3.04125 7.11375 3.0825 8.2275 3.125 9.375 C3 13 3 13 1 15 C-1.125 14.625 -1.125 14.625 -3 14 C-2.67 13.01 -2.34 12.02 -2 11 C-1.34 11.33 -0.68 11.66 0 12 C0 9.69 0 7.38 0 5 C-0.99 5 -1.98 5 -3 5 C-2.67 4.01 -2.34 3.02 -2 2 C-1.34 2 -0.68 2 0 2 C0 1.34 0 0.68 0 0 Z " fill="#2E2E2D" transform="translate(396,75)"/>
<path d="M0 0 C1.65 1.65 3.3 3.3 5 5 C3.68 9.62 2.36 14.24 1 19 C-1 17 -1 17 -1.23046875 14.609375 C-1.155862 9.64463479 -1.05443055 4.87674129 0 0 Z " fill="#414141" transform="translate(255,215)"/>
<path d="M0 0 C0.99 0.99 1.98 1.98 3 3 C-2.05311193 7.42147293 -7.18327401 11 -14 11 C-12.4958659 6.6970341 -9.75152588 5.39446112 -5.875 3.25 C-4.77929688 2.63640625 -3.68359375 2.0228125 -2.5546875 1.390625 C-1.71164062 0.93171875 -0.86859375 0.4728125 0 0 Z " fill="#474747" transform="translate(482,256)"/>
<path d="M0 0 C0.763125 0.309375 1.52625 0.61875 2.3125 0.9375 C4.18789677 1.67893593 6.08684652 2.36228217 8 3 C7.125 7.875 7.125 7.875 6 9 C3.5625 9.25 3.5625 9.25 1 9 C-1.14809171 5.77786243 -1.29386153 4.72224599 -1 1 C-0.67 0.67 -0.34 0.34 0 0 Z " fill="#4E4F4B" transform="translate(352,63)"/>
<path d="M0 0 C4.22267422 1.50809793 6.02741699 4.05483398 8 8 C7.25 11.375 7.25 11.375 6 14 C5.34 14 4.68 14 4 14 C4 15.98 4 17.96 4 20 C3.67 20 3.34 20 3 20 C2.92652344 18.71416016 2.92652344 18.71416016 2.8515625 17.40234375 C2.45465756 11.33243544 2.00791601 5.75602589 0 0 Z " fill="#373737" transform="translate(486,218)"/>
<path d="M0 0 C3.36179774 1.44077046 5.59156268 3.24750021 8 6 C8 6.66 8 7.32 8 8 C7.05125 8.433125 6.1025 8.86625 5.125 9.3125 C1.79958063 10.79302201 1.79958063 10.79302201 0 14 C-0.66 14 -1.32 14 -2 14 C-1.55896348 11.35378087 -1.15971276 9.27739585 0.1875 6.9375 C1.28251737 4.9552991 1.28251737 4.9552991 0.125 2.75 C-0.24625 2.1725 -0.6175 1.595 -1 1 C-0.67 0.67 -0.34 0.34 0 0 Z " fill="#1D1D1B" transform="translate(318,79)"/>
<path d="M0 0 C1.65 0.33 3.3 0.66 5 1 C5.33 2.98 5.66 4.96 6 7 C5.01 7 4.02 7 3 7 C2.34 8.32 1.68 9.64 1 11 C0.731875 10.360625 0.46375 9.72125 0.1875 9.0625 C-0.88667752 6.66868314 -0.88667752 6.66868314 -4 6 C-4 5.34 -4 4.68 -4 4 C-2.68 4 -1.36 4 0 4 C0 2.68 0 1.36 0 0 Z " fill="#30302F" transform="translate(304,90)"/>
<path d="M0 0 C0.66 0.33 1.32 0.66 2 1 C1.34 1.66 0.68 2.32 0 3 C0.66 3.66 1.32 4.32 2 5 C-3.27358491 8.06603774 -3.27358491 8.06603774 -6.75 7.75 C-9 7 -9 7 -11 6 C-10.67 5.01 -10.34 4.02 -10 3 C-9.0925 3.061875 -8.185 3.12375 -7.25 3.1875 C-3.71017358 2.98327924 -2.55068845 2.35448165 0 0 Z " fill="#161615" transform="translate(258,481)"/>
<path d="M0 0 C0.33 0 0.66 0 1 0 C1.01458252 0.61407715 1.02916504 1.2281543 1.04418945 1.86083984 C1.11961945 4.69945985 1.21595776 7.53702258 1.3125 10.375 C1.33505859 11.34050781 1.35761719 12.30601562 1.38085938 13.30078125 C1.6262817 19.94949503 2.77248401 25.73129335 5 32 C4.01 32 3.02 32 2 32 C0.14274249 28.05091786 -0.23651489 24.95232103 -0.1953125 20.60546875 C-0.18886719 19.40341797 -0.18242187 18.20136719 -0.17578125 16.96289062 C-0.15902344 15.71701172 -0.14226562 14.47113281 -0.125 13.1875 C-0.11597656 11.92228516 -0.10695312 10.65707031 -0.09765625 9.35351562 C-0.07412394 6.23548436 -0.04124545 3.11783903 0 0 Z " fill="#303030" transform="translate(244,299)"/>
<path d="M0 0 C0.66 0 1.32 0 2 0 C2.32871094 0.70125 2.65742188 1.4025 2.99609375 2.125 C6.59822659 9.30974193 10.66091692 14.0836889 17 19 C12.08116578 19 9.41116428 15.28712194 6 12 C2.36089225 8.16936026 1.18510558 5.03669873 0 0 Z " fill="#3C3C3C" transform="translate(319,302)"/>
<path d="M0 0 C0.99 0.33 1.98 0.66 3 1 C1.71034824 2.37562854 0.37310707 3.70766393 -1 5 C-1.66 5 -2.32 5 -3 5 C-3.226875 5.556875 -3.45375 6.11375 -3.6875 6.6875 C-5.35896766 9.63246684 -7.55276352 11.68156544 -10 14 C-9.88950112 9.46954606 -8.6684207 7.30630833 -5.5625 4.1875 C-3.72573786 2.45043685 -2.26130701 1.1306535 0 0 Z " fill="#3E3E3E" transform="translate(22,146)"/>
<path d="M0 0 C0.66 0 1.32 0 2 0 C2 0.66 2 1.32 2 2 C2.99 2.33 3.98 2.66 5 3 C4.01 3.495 4.01 3.495 3 4 C3 4.66 3 5.32 3 6 C3.66 6 4.32 6 5 6 C5 6.66 5 7.32 5 8 C3.35 8.33 1.7 8.66 0 9 C0 8.34 0 7.68 0 7 C-1.32 7 -2.64 7 -4 7 C-2.79618552 4.50638429 -1.54571278 2.31856917 0 0 Z " fill="#303030" transform="translate(373,76)"/>
<path d="M0 0 C0.99 0 1.98 0 3 0 C2.91266424 1.60517097 2.80447776 3.20921662 2.6875 4.8125 C2.62949219 5.70582031 2.57148438 6.59914062 2.51171875 7.51953125 C1.93686419 10.30604 1.1793144 11.24135754 -1 13 C-1.66 12.67 -2.32 12.34 -3 12 C-2.01 8.04 -1.02 4.08 0 0 Z " fill="#454545" transform="translate(317,222)"/>
<path d="M0 0 C5.19822672 1.36144033 8.09543873 3.46730171 12 7 C11.67 7.66 11.34 8.32 11 9 C8.08482708 7.92598892 6.22189824 7.22189824 4 5 C1.89179203 5.3185177 1.89179203 5.3185177 0 6 C0 4.02 0 2.04 0 0 Z " fill="#2F2F2F" transform="translate(293,103)"/>
<path d="M0 0 C0.66 0 1.32 0 2 0 C1.34 1.32 0.68 2.64 0 4 C-0.66 4 -1.32 4 -2 4 C-2 4.66 -2 5.32 -2 6 C-0.35 6 1.3 6 3 6 C2.360625 6.309375 1.72125 6.61875 1.0625 6.9375 C-0.93610821 7.8345163 -0.93610821 7.8345163 -2 9 C-3.66617115 9.04063832 -5.33388095 9.042721 -7 9 C-7 7.33333333 -7 5.66666667 -7 4 C-6.030625 3.525625 -5.06125 3.05125 -4.0625 2.5625 C-1.19522563 1.29806053 -1.19522563 1.29806053 0 0 Z " fill="#0B0B0B" transform="translate(290,97)"/>
<path d="M0 0 C0.33 0 0.66 0 1 0 C1 3.63 1 7.26 1 11 C-3 12 -3 12 -7 12 C-6.21625 11.319375 -5.4325 10.63875 -4.625 9.9375 C-1.54149479 6.48691084 -0.95642485 4.43433338 0 0 Z " fill="#060706" transform="translate(254,450)"/>
<path d="M0 0 C0.78375 0.04125 1.5675 0.0825 2.375 0.125 C-0.26186273 3.73847855 -2.55705018 6.19272383 -6.625 8.125 C-7.945 8.125 -9.265 8.125 -10.625 8.125 C-10.625 7.465 -10.625 6.805 -10.625 6.125 C-8.65178947 4.7523318 -6.64956848 3.42072383 -4.625 2.125 C-2.625 0.125 -2.625 0.125 0 0 Z " fill="#3D3D3D" transform="translate(203.625,328.875)"/>
<path d="M0 0 C0.8125 1.625 0.8125 1.625 1 4 C-2.73831776 9.60747664 -2.73831776 9.60747664 -6.8125 10.875 C-7.8953125 10.936875 -7.8953125 10.936875 -9 11 C-9 9 -9 9 -6.75 6.625 C-5.8425 5.75875 -4.935 4.8925 -4 4 C-3.236875 3.236875 -2.47375 2.47375 -1.6875 1.6875 C-1.130625 1.130625 -0.57375 0.57375 0 0 Z " fill="#494949" transform="translate(211,319)"/>
<path d="M0 0 C0.33 1.32 0.66 2.64 1 4 C-5.75 8 -5.75 8 -8 8 C-8 6.68 -8 5.36 -8 4 C-5.36 2.68 -2.72 1.36 0 0 Z " fill="#3B3B3B" transform="translate(268,340)"/>
<path d="M0 0 C0.33 0 0.66 0 1 0 C1.1799928 5.21979128 0.97094808 9.07262981 -1 14 C-1.99 14 -2.98 14 -4 14 C-4.99 14.495 -4.99 14.495 -6 15 C-5.34 12.36 -4.68 9.72 -4 7 C-2.68 7 -1.36 7 0 7 C0 4.69 0 2.38 0 0 Z " fill="#323232" transform="translate(280,464)"/>
<path d="M0 0 C-0.3125 1.9375 -0.3125 1.9375 -1 4 C-1.99 4.33 -2.98 4.66 -4 5 C-4.33 6.65 -4.66 8.3 -5 10 C-5.66 9.67 -6.32 9.34 -7 9 C-6.75 5.625 -6.75 5.625 -6 2 C-3.83076342 0.3905664 -2.68076871 0 0 0 Z " fill="#646564" transform="translate(276,110)"/>
<path d="M0 0 C0.66 0 1.32 0 2 0 C1.67 3.63 1.34 7.26 1 11 C0.01 11.33 -0.98 11.66 -2 12 C-2.33 11.67 -2.66 11.34 -3 11 C-2.61577388 6.92720311 -2.12055529 3.53425882 0 0 Z " fill="#242424" transform="translate(384,81)"/>
<path d="M0 0 C6.625 -0.25 6.625 -0.25 10 2 C9.38125 2.28875 8.7625 2.5775 8.125 2.875 C5.86674235 3.93720042 5.86674235 3.93720042 4 6 C2.68 5.34 1.36 4.68 0 4 C0 2.68 0 1.36 0 0 Z " fill="#353535" transform="translate(359,122)"/>
<path d="M0 0 C0.79921875 0.01804688 1.5984375 0.03609375 2.421875 0.0546875 C3.02515625 0.07789063 3.6284375 0.10109375 4.25 0.125 C4.25 0.455 4.25 0.785 4.25 1.125 C2.6 1.125 0.95 1.125 -0.75 1.125 C-1.08 2.115 -1.41 3.105 -1.75 4.125 C-4.06 4.455 -6.37 4.785 -8.75 5.125 C-8.75 4.135 -8.75 3.145 -8.75 2.125 C-5.68753253 0.34090198 -3.52920727 -0.10380021 0 0 Z " fill="#323230" transform="translate(354.75,57.875)"/>
<path d="M0 0 C-1.24976756 3.65316671 -1.67098753 4.78065836 -5 7 C-6.32 7 -7.64 7 -9 7 C-7.51191431 2.53574293 -4.79253508 0 0 0 Z " fill="#1D1D1B" transform="translate(336,81)"/>
<path d="M0 0 C2.64 0 5.28 0 8 0 C8 0.99 8 1.98 8 3 C6.02 3 4.04 3 2 3 C2 6.3 2 9.6 2 13 C1.67 13 1.34 13 1 13 C1.01740234 11.84371094 1.01740234 11.84371094 1.03515625 10.6640625 C1.04417969 9.66117187 1.05320313 8.65828125 1.0625 7.625 C1.07410156 6.62726563 1.08570313 5.62953125 1.09765625 4.6015625 C1.18006602 2.01567547 1.18006602 2.01567547 0 0 Z " fill="#393A39" transform="translate(254,448)"/>
<path d="M0 0 C1.32 0 2.64 0 4 0 C4.66 1.65 5.32 3.3 6 5 C4.02 5.99 4.02 5.99 2 7 C1.34 4.69 0.68 2.38 0 0 Z " fill="#2B2B29" transform="translate(325,90)"/>
<path d="M0 0 C7.75 -0.125 7.75 -0.125 10 1 C10 1.66 10 2.32 10 3 C6.7 3 3.4 3 0 3 C0 2.01 0 1.02 0 0 Z " fill="#2E2E2C" transform="translate(272,65)"/>
<path d="M0 0 C0.66 0.66 1.32 1.32 2 2 C-1.96 2.66 -5.92 3.32 -10 4 C-10.33 3.01 -10.66 2.02 -11 1 C-7.07703567 -0.30765478 -4.13997567 -0.1971417 0 0 Z " fill="#2E2E2D" transform="translate(290,127)"/>
<path d="M0 0 C0 0.66 0 1.32 0 2 C-3.63 2.33 -7.26 2.66 -11 3 C-11 2.34 -11 1.68 -11 1 C-3.57142857 -1.42857143 -3.57142857 -1.42857143 0 0 Z " fill="#373737" transform="translate(171,182)"/>
<path d="M0 0 C0.66 0.33 1.32 0.66 2 1 C2 2.98 2 4.96 2 7 C-1.13498292 8.85776765 -3.37471432 9.20140476 -7 9 C-4.64046906 6.64046906 -3.22104383 6.50858587 0 6 C0 4.02 0 2.04 0 0 Z " fill="#151515" transform="translate(297,119)"/>
<path d="M0 0 C0.75 1.6875 0.75 1.6875 1 4 C-0.80450953 6.87384851 -2.01312923 8.64363 -5.25 9.8125 C-5.8275 9.874375 -6.405 9.93625 -7 10 C-7 8 -7 8 -5.1875 6.125 C-4.465625 5.42375 -3.74375 4.7225 -3 4 C-1.97676564 2.68441297 -0.96873032 1.35622245 0 0 Z " fill="#0F0F0E" transform="translate(277,476)"/>
<path d="M0 0 C0.33 0.99 0.66 1.98 1 3 C-0.9375 5.6875 -0.9375 5.6875 -3 8 C-3.99 7.67 -4.98 7.34 -6 7 C-4.60667426 3.63279613 -3.0210714 2.0140476 0 0 Z " fill="#454545" transform="translate(358,211)"/>
<path d="M0 0 C1.48199902 0.44909061 2.96055236 0.90956564 4.4375 1.375 C5.26121094 1.63023438 6.08492188 1.88546875 6.93359375 2.1484375 C9 3 9 3 10 5 C5.32538149 5.32613618 2.83325617 4.70582788 -1 2 C-0.67 1.34 -0.34 0.68 0 0 Z " fill="#171716" transform="translate(266,99)"/>
<path d="M0 0 C0.33 0.66 0.66 1.32 1 2 C-0.59617578 5.83082186 -1.49984971 7.66656647 -5 10 C-5.33 9.01 -5.66 8.02 -6 7 C-2.73239437 1.36619718 -2.73239437 1.36619718 0 0 Z " fill="#232323" transform="translate(297,89)"/>
<path d="M0 0 C0.99 0 1.98 0 3 0 C3 2.64 3 5.28 3 8 C2.01 8.33 1.02 8.66 0 9 C0 6.03 0 3.06 0 0 Z " fill="#040404" transform="translate(277,463)"/>
<path d="M0 0 C0.99 0.99 1.98 1.98 3 3 C1.1875 4.5625 1.1875 4.5625 -1 6 C-1.99 5.67 -2.98 5.34 -4 5 C-4 4.01 -4 3.02 -4 2 C-2.68 1.34 -1.36 0.68 0 0 Z " fill="#4A4A4A" transform="translate(482,256)"/>
<path d="M0 0 C-0.75 1.9375 -0.75 1.9375 -2 4 C-4 4.875 -4 4.875 -6 5 C-6.66 4.34 -7.32 3.68 -8 3 C-4.93882432 0.37613513 -4.26826873 0 0 0 Z " fill="#434343" transform="translate(177,178)"/>
<path d="M0 0 C-7.28571429 3.42857143 -7.28571429 3.42857143 -12 3 C-8.66305069 -1.03946495 -4.8800129 -1.62667097 0 0 Z " fill="#262626" transform="translate(449,270)"/>
<path d="M0 0 C1.2065625 0.0309375 1.2065625 0.0309375 2.4375 0.0625 C2.4375 1.0525 2.4375 2.0425 2.4375 3.0625 C0.4575 4.0525 0.4575 4.0525 -1.5625 5.0625 C-2.2225 3.7425 -2.8825 2.4225 -3.5625 1.0625 C-2.5625 0.0625 -2.5625 0.0625 0 0 Z " fill="#E3E3E2" transform="translate(273.5625,103.9375)"/>
<path d="M0 0 C0.66 0 1.32 0 2 0 C1.67 3.96 1.34 7.92 1 12 C0.67 12 0.34 12 0 12 C0 9.69 0 7.38 0 5 C-0.99 5 -1.98 5 -3 5 C-2.67 4.01 -2.34 3.02 -2 2 C-1.34 2 -0.68 2 0 2 C0 1.34 0 0.68 0 0 Z " fill="#4B4B4A" transform="translate(396,75)"/>
<path d="M0 0 C0.66 0.66 1.32 1.32 2 2 C0.68 3.65 -0.64 5.3 -2 7 C-3.32 6.67 -4.64 6.34 -6 6 C-4.02 4.02 -2.04 2.04 0 0 Z " fill="#393939" transform="translate(488,320)"/>
<path d="M0 0 C0.66 0 1.32 0 2 0 C3.125 3.75 3.125 3.75 2 6 C0.68 6 -0.64 6 -2 6 C-1.125 1.125 -1.125 1.125 0 0 Z " fill="#424242" transform="translate(370,189)"/>
<path d="M0 0 C0.66 0 1.32 0 2 0 C1.34 4.62 0.68 9.24 0 14 C-0.33 14 -0.66 14 -1 14 C-1.02694851 12.04174127 -1.04637218 10.08337774 -1.0625 8.125 C-1.07410156 7.03445312 -1.08570313 5.94390625 -1.09765625 4.8203125 C-1 2 -1 2 0 0 Z " fill="#10100F" transform="translate(260,75)"/>
<path d="M0 0 C0.66 0 1.32 0 2 0 C5.10096154 5.45769231 5.10096154 5.45769231 4.58984375 8.203125 C4.39519531 8.79609375 4.20054687 9.3890625 4 10 C3.32845067 8.71086513 2.66291141 7.41859796 2 6.125 C1.62875 5.40570313 1.2575 4.68640625 0.875 3.9453125 C0 2 0 2 0 0 Z " fill="#484848" transform="translate(319,302)"/>
<path d="M0 0 C1.64350079 3.28700157 2.41321669 5.47930015 3 9 C2.01 8.67 1.02 8.34 0 8 C-0.33 8.99 -0.66 9.98 -1 11 C-0.67 7.37 -0.34 3.74 0 0 Z " fill="#343434" transform="translate(253,228)"/>
<path d="M0 0 C-1.20381448 2.49361571 -2.45428722 4.68143083 -4 7 C-5.32 6.34 -6.64 5.68 -8 5 C-2.25 0 -2.25 0 0 0 Z " fill="#464646" transform="translate(441,222)"/>
<path d="M0 0 C1.65 1.65 3.3 3.3 5 5 C4.360625 5.12375 3.72125 5.2475 3.0625 5.375 C2.0415625 5.684375 2.0415625 5.684375 1 6 C0.67 6.66 0.34 7.32 0 8 C0 5.36 0 2.72 0 0 Z " fill="#474747" transform="translate(255,215)"/>
<path d="M0 0 C0.33 0 0.66 0 1 0 C1 2.97 1 5.94 1 9 C-0.32 9.33 -1.64 9.66 -3 10 C-3.33 8.68 -3.66 7.36 -4 6 C-2.68 6.33 -1.36 6.66 0 7 C0 4.69 0 2.38 0 0 Z " fill="#171717" transform="translate(397,80)"/>
<path d="M0 0 C0 0.99 0 1.98 0 3 C-1.98 3 -3.96 3 -6 3 C-6 2.34 -6 1.68 -6 1 C-6.66 0.67 -7.32 0.34 -8 0 C-2.25 -1.125 -2.25 -1.125 0 0 Z " fill="#373536" transform="translate(90,337)"/>
<path d="M0 0 C1.5 1.375 1.5 1.375 3 3 C3 3.66 3 4.32 3 5 C1.35 5.33 -0.3 5.66 -2 6 C-1.125 1.125 -1.125 1.125 0 0 Z " fill="#494949" transform="translate(276,332)"/>
<path d="M0 0 C1.41687119 4.25061356 0.19320039 6.71851625 -1 11 C-1.66 11 -2.32 11 -3 11 C-2.44894091 7.0507432 -1.61064629 3.65079826 0 0 Z " fill="#3F3F3F" transform="translate(324,201)"/>
<path d="M0 0 C0.33 0.66 0.66 1.32 1 2 C-0.32 1.67 -1.64 1.34 -3 1 C-2.67 1.99 -2.34 2.98 -2 4 C-3.32 4 -4.64 4 -6 4 C-6.33 3.01 -6.66 2.02 -7 1 C-4.53721199 -0.231394 -2.7204945 -0.07159196 0 0 Z " fill="#454545" transform="translate(370,124)"/>
<path d="M0 0 C0.598125 0.20625 1.19625 0.4125 1.8125 0.625 C0.6059375 1.181875 0.6059375 1.181875 -0.625 1.75 C-3.49922896 3.4359337 -3.49922896 3.4359337 -4 6.8125 C-4.061875 7.740625 -4.12375 8.66875 -4.1875 9.625 C-4.5175 9.625 -4.8475 9.625 -5.1875 9.625 C-5.48046875 3.5703125 -5.48046875 3.5703125 -5.1875 1.625 C-2.1875 -0.375 -2.1875 -0.375 0 0 Z " fill="#BFC0C0" transform="translate(246.1875,462.375)"/>
<path d="M0 0 C0.33 0 0.66 0 1 0 C1 2.64 1 5.28 1 8 C-0.32 7.34 -1.64 6.68 -3 6 C-2.01 4.02 -1.02 2.04 0 0 Z " fill="#373737" transform="translate(390,301)"/>
<path d="M0 0 C0.66 0.66 1.32 1.32 2 2 C1.01 3.485 1.01 3.485 0 5 C-1.32 5 -2.64 5 -4 5 C-2.25 1.125 -2.25 1.125 0 0 Z " fill="#3E3E3E" transform="translate(472,262)"/>
</svg>
