<?xml version="1.0" standalone="no"?>
<!DOCTYPE svg PUBLIC "-//W3C//DTD SVG 20010904//EN"
 "http://www.w3.org/TR/2001/REC-SVG-20010904/DTD/svg10.dtd">
<svg version="1.0" xmlns="http://www.w3.org/2000/svg"
 width="721.000000pt" height="556.000000pt" viewBox="0 0 721.000000 556.000000"
 preserveAspectRatio="xMidYMid meet">

<g transform="translate(0.000000,556.000000) scale(0.100000,-0.100000)"
fill="#000000" stroke="none">
<path d="M3355 4550 c-713 -115 -1290 -625 -1489 -1317 -52 -182 -71 -312 -70
-503 0 -228 28 -403 94 -605 l30 -90 290 3 c159 1 290 5 290 8 0 2 -17 39 -39
82 -164 326 -183 698 -56 1054 61 170 163 326 305 469 255 257 570 389 930
390 192 0 347 -30 520 -101 350 -145 635 -458 749 -826 103 -330 77 -671 -74
-979 -24 -49 -43 -90 -42 -92 2 -1 133 -3 292 -3 l289 -1 24 68 c160 472 133
967 -77 1408 -92 193 -191 335 -345 493 -297 305 -650 485 -1067 546 -144 22
-410 19 -554 -4z"/>
<path d="M3535 3974 c-410 -45 -757 -263 -969 -610 -55 -91 -110 -226 -142
-349 -27 -102 -29 -124 -28 -295 0 -160 3 -198 23 -280 31 -122 61 -204 119
-312 43 -84 47 -88 79 -88 38 0 39 3 14 38 -30 43 -86 161 -116 242 -88 244
-87 554 1 802 138 385 469 676 876 770 72 17 128 22 248 22 167 1 251 -12 397
-60 355 -119 648 -423 757 -786 39 -130 49 -203 49 -348 1 -236 -56 -438 -178
-637 l-26 -43 35 0 c33 0 37 4 71 65 119 212 173 465 154 717 -43 554 -451
1016 -996 1127 -98 20 -290 33 -368 25z"/>
<path d="M3520 3829 c-308 -31 -605 -209 -791 -473 -260 -368 -267 -870 -16
-1252 l40 -62 56 -4 c31 -2 75 -2 98 0 l41 4 -51 66 c-58 77 -110 184 -126
260 -25 118 -9 258 40 364 l22 47 -41 46 c-61 70 -85 141 -80 240 7 127 69
223 183 283 44 24 62 27 145 27 99 0 136 -12 212 -68 21 -16 95 -112 103 -134
1 -2 33 4 71 12 149 31 358 27 491 -11 17 -5 25 1 38 26 53 102 158 170 272
178 202 13 357 -135 356 -339 0 -79 -35 -164 -88 -219 l-35 -36 30 -70 c67
-161 53 -370 -36 -521 -14 -24 -45 -68 -70 -98 l-44 -55 99 0 99 0 39 63 c125
196 171 337 180 558 7 166 -6 267 -53 409 -167 504 -651 814 -1184 759z"/>
<path d="M2990 3183 c-8 -3 -25 -15 -37 -26 -75 -68 4 -199 102 -167 44 15 66
41 72 89 5 36 2 44 -30 76 -34 34 -67 43 -107 28z"/>
<path d="M4230 3183 c-8 -3 -25 -15 -37 -26 -75 -68 4 -199 102 -167 44 15 66
41 72 89 5 36 2 44 -30 76 -34 34 -67 43 -107 28z"/>
<path d="M3184 2413 c19 -135 83 -248 185 -325 l62 -48 214 0 214 0 63 48
c102 77 170 193 184 318 l7 55 -59 -3 -59 -3 -6 -50 c-13 -105 -96 -215 -199
-264 -46 -22 -69 -26 -145 -26 -78 0 -97 4 -146 28 -104 51 -183 159 -196 267
l-6 50 -60 0 -59 0 6 -47z"/>
<path d="M1715 1790 l-209 -210 190 -192 c104 -106 201 -202 215 -215 l27 -23
1714 0 1713 0 208 208 c114 114 207 212 207 217 0 5 -93 103 -207 217 l-208
208 -1720 0 -1721 0 -209 -210z m3835 -15 l195 -195 -200 -200 -200 -200
-1700 0 -1700 0 -197 197 -198 198 197 197 198 198 1705 0 1705 0 195 -195z"/>
<path d="M2113 1790 c-49 -16 -83 -63 -83 -117 0 -65 36 -96 138 -119 42 -9
85 -21 94 -25 26 -14 32 -47 14 -74 -14 -22 -24 -25 -71 -25 -46 0 -59 5 -89
30 -30 27 -37 29 -60 19 -42 -19 -30 -50 34 -88 44 -26 165 -29 211 -5 38 19
63 74 54 118 -15 69 -54 99 -153 117 -31 6 -67 17 -79 25 -25 16 -30 53 -11
72 20 20 106 14 149 -10 37 -21 39 -21 59 -3 11 10 20 21 20 25 0 4 -21 18
-48 33 -54 29 -132 41 -179 27z"/>
<path d="M2407 1783 c-4 -3 -7 -98 -7 -210 l0 -203 35 0 35 0 0 90 0 90 115 0
115 0 0 -90 0 -90 35 0 35 0 0 210 0 210 -35 0 -35 0 0 -90 0 -90 -115 0 -115
0 0 90 0 90 -28 0 c-16 0 -32 -3 -35 -7z"/>
<path d="M2945 1772 c-130 -61 -164 -226 -69 -332 94 -104 263 -86 331 35 33
58 32 153 -2 211 -50 85 -175 126 -260 86z m161 -71 c58 -36 80 -122 47 -184
l-18 -32 -5 53 c-5 43 -12 59 -42 88 -29 30 -45 38 -86 42 -28 2 -58 -1 -72
-8 -36 -19 -20 10 20 38 42 28 112 30 156 3z"/>
<path d="M3280 1765 c0 -24 3 -25 58 -26 116 -2 156 -11 170 -42 16 -33 1 -91
-26 -102 -9 -4 -59 -9 -109 -12 l-93 -6 0 -103 0 -104 35 0 35 0 0 79 0 78 73
5 c119 8 163 45 161 138 -1 54 -25 94 -68 110 -16 5 -76 10 -132 10 l-104 0 0
-25z"/>
<path d="M3770 1765 c0 -23 3 -24 68 -27 l67 -3 3 -182 2 -183 35 0 35 0 2
183 3 182 68 3 c64 3 67 4 67 27 l0 25 -175 0 -175 0 0 -25z"/>
<path d="M4331 1768 c-5 -13 -43 -106 -85 -207 -42 -101 -76 -185 -76 -187 0
-2 17 -4 38 -4 l37 0 64 161 c35 88 67 157 72 152 4 -4 34 -75 67 -158 l59
-150 36 -3 c20 -2 37 0 37 3 0 3 -36 98 -81 211 l-80 204 -40 0 c-32 0 -41 -4
-48 -22z"/>
<path d="M4630 1580 l0 -210 140 0 140 0 0 25 c0 24 -1 24 -102 27 l-103 3 -3
183 -2 182 -35 0 -35 0 0 -210z"/>
<path d="M4960 1760 l0 -30 150 0 150 0 0 30 0 30 -150 0 -150 0 0 -30z"/>
<path d="M4960 1485 l0 -115 155 0 155 0 0 25 0 25 -120 0 -120 0 0 65 0 65
110 0 110 0 0 25 0 25 -145 0 -145 0 0 -115z"/>
<path d="M2760 1089 c87 -48 253 -117 361 -149 330 -98 697 -99 1039 -4 105
30 286 104 370 152 l55 32 -940 0 -940 0 55 -31z"/>
</g>
</svg>
